<?xml version="1.0" encoding="UTF-8"?>
<svg width="24px" height="24px" viewBox="0 0 24 24" version="1.1" xmlns="http://www.w3.org/2000/svg">
    <title>Movie Icon</title>
    <g stroke="none" stroke-width="1" fill="none" fill-rule="evenodd">
        <path d="M4,3 C2.89543,3 2,3.89543 2,5 L2,19 C2,20.1046 2.89543,21 4,21 L20,21 C21.1046,21 22,20.1046 22,19 L22,5 C22,3.89543 21.1046,3 20,3 L4,3 Z M4,5 L20,5 L20,19 L4,19 L4,5 Z" fill="#E50914" fill-rule="nonzero"/>
        <path d="M6,7 L8,7 L8,9 L6,9 L6,7 Z M10,7 L12,7 L12,9 L10,9 L10,7 Z M14,7 L16,7 L16,9 L14,9 L14,7 Z M18,7 L20,7 L20,9 L18,9 L18,7 Z" fill="#E50914"/>
        <path d="M6,11 L8,11 L8,13 L6,13 L6,11 Z M10,11 L12,11 L12,13 L10,13 L10,11 Z M14,11 L16,11 L16,13 L14,13 L14,11 Z M18,11 L20,11 L20,13 L18,13 L18,11 Z" fill="#E50914"/>
        <path d="M6,15 L8,15 L8,17 L6,17 L6,15 Z M10,15 L12,15 L12,17 L10,17 L10,15 Z M14,15 L16,15 L16,17 L14,17 L14,15 Z M18,15 L20,15 L20,17 L18,17 L18,15 Z" fill="#E50914"/>
    </g>
</svg>
